<svg width="64" height="64" viewBox="0 0 64 64" fill="none" xmlns="http://www.w3.org/2000/svg">
  <style>
    .symbol { fill: #0066ff; }
    .text { fill: #fff; }

    @media (prefers-color-scheme: dark) {
      .symbol { fill: #fff; }
      .text { fill: #0066ff; }
    }
  </style>
  <g clip-path="url(#clip0_2741_435)">
    <path class="symbol" d="M63.4138 22.4581C64.1655 28.1344 63.9797 31.9999 63.9797 31.9999C63.9797 31.9999 64.1655 35.8646 63.4138 41.5402C62.6256 47.4811 60.5225 52.8678 56.8133 56.8128L56.8127 56.8134C52.8692 60.5206 47.4845 62.625 41.541 63.4133C35.8648 64.165 32.0001 63.9798 32.0001 63.9798C32.0001 63.9798 28.1347 64.165 22.4592 63.4133C16.5163 62.625 11.131 60.5206 7.18749 56.8134L7.18689 56.8128C3.47812 52.8678 1.37442 47.4845 0.586834 41.5402C-0.165523 35.8646 0.0203207 32.0012 0.0203207 32.0012C0.0203207 32.0012 -0.165523 28.1344 0.586834 22.4581C1.37443 16.5159 3.47812 11.1305 7.18671 7.18698H7.18731C11.1315 3.47834 16.5154 1.37531 22.459 0.586327C28.1352 -0.166039 31.9999 0.0204978 31.9999 0.0204978C31.9999 0.0204978 35.8646 -0.166039 41.5408 0.586327C47.4837 1.37462 52.869 3.47765 56.8125 7.18698H56.8131C60.5224 11.1305 62.6254 16.5152 63.4137 22.4581"/>
    <path class="text" d="M35.4094 39.1989C33.7028 34.8485 21.9147 32.859 20.4655 25.9905C20.1164 24.3046 20.1516 22.958 20.3914 21.4472C21.273 15.9752 26.0968 14 31.9996 14C36.7 14 43.1882 15.143 43.1882 22.4651V24.8261H34.9122C34.9122 24.8261 34.9122 23.3688 34.9122 22.7509C34.9122 20.915 33.7662 19.7006 31.8268 19.7006C29.7499 19.7006 29.0235 20.8828 28.7943 21.9544C28.7167 22.3365 28.6709 23.0509 28.8296 23.726C29.7675 27.6621 42.3631 29.7623 43.763 36.7987C43.9005 37.5166 44.2002 39.4168 43.7982 42.3207C43.0119 47.9212 38.0682 50 32.0666 50C25.8253 50 20 47.7391 20 40.2455L20.0071 37.6416H28.9072V40.8955C28.9072 42.7421 30.1695 43.9494 32.25 43.9494C34.4574 43.9494 35.2049 42.81 35.4835 41.692C35.6351 41.0598 35.7339 40.0133 35.4094 39.1989L35.4094 39.1989Z" />
  </g>
  <defs>
    <clipPath id="clip0_2741_435">
      <rect width="64" height="64" fill="transparent"/>
    </clipPath>
  </defs>
</svg>