<svg width="64" height="64" fill="none" xmlns="http://www.w3.org/2000/svg"><style>@media (prefers-color-scheme:dark){.symbol{fill:#fff}.text{fill:#06f}}</style><g clip-path="url(#clip0_2741_435)"><path d="M63.414 22.458c.751 5.676.566 9.542.566 9.542s.185 3.865-.566 9.54c-.788 5.941-2.892 11.328-6.6 15.273h-.001c-3.944 3.708-9.329 5.812-15.272 6.6-5.676.752-9.54.567-9.54.567s-3.866.185-9.542-.567c-5.943-.788-11.328-2.892-15.272-6.6-3.709-3.945-5.813-9.329-6.6-15.273-.753-5.675-.567-9.539-.567-9.539s-.186-3.867.567-9.543c.787-5.942 2.891-11.327 6.6-15.271 3.945-3.709 9.328-5.812 15.272-6.6 5.676-.753 9.54-.567 9.54-.567s3.866-.186 9.542.566c5.943.789 11.328 2.892 15.272 6.601 3.71 3.943 5.812 9.328 6.6 15.271" style="fill:#06f"/><path d="M35.41 39.199c-1.707-4.35-13.495-6.34-14.944-13.208-.35-1.686-.314-3.033-.075-4.544C21.273 15.975 26.097 14 32 14c4.7 0 11.188 1.143 11.188 8.465v2.361h-8.276v-2.075c0-1.836-1.146-3.05-3.085-3.05-2.077 0-2.804 1.182-3.033 2.253a4.515 4.515 0 0 0 .036 1.772c.938 3.936 13.533 6.036 14.933 13.073.138.718.437 2.618.035 5.522-.786 5.6-5.73 7.679-11.731 7.679C25.825 50 20 47.74 20 40.245l.007-2.603h8.9v3.253c0 1.847 1.262 3.054 3.343 3.054 2.207 0 2.955-1.139 3.233-2.257.152-.632.25-1.679-.074-2.493Z" style="fill:#fff"/></g><defs><clipPath id="clip0_2741_435"><path fill="transparent" d="M0 0h64v64H0z"/></clipPath></defs></svg>