<svg width="129" height="129" fill="none" xmlns="http://www.w3.org/2000/svg"><path d="M14.543 13.74c-.117-7.005 6.346-12.278 13.186-10.757l55.219 12.28c.87.194 1.76.279 2.652.254l25.583-.709c8.122-.225 13.593 8.237 10.054 15.55l-17.016 35.17a10.83 10.83 0 0 0-.871 6.846l7.944 39.686c1.569 7.837-5.597 14.617-13.335 12.618L41.77 110.159a10.827 10.827 0 0 0-4.075-.259l-21.67 2.751c-7.645.971-13.83-6.123-11.829-13.563l10.685-39.715a10.81 10.81 0 0 0 .37-2.995l-.708-42.638Z" fill="url(#a)"/><path d="M69.546 28.9c.455.607.733 1.315.834 2.124 0 .303-.025.607-.076.91 0 .253-.025.506-.076.758-.05.557-.38 1.088-.986 1.593a8.234 8.234 0 0 1-1.365.759 5.643 5.643 0 0 1-.986.227c-.303 0-.657.026-1.062.076a3.1 3.1 0 0 1-.986.152h-4.475l-15.852.076v.227l-.076 12.363h1.29c.505 0 1.112-.025 1.82-.076h5.385c1.618 0 3.388.026 5.31.076h.455c.556 0 1.112.025 1.668.076h1.82c.557.05 1.113.126 1.669.227a6.626 6.626 0 0 1 1.669.38c.91.303 1.567.784 1.972 1.44.556.658.834 1.34.834 2.049v.91c0 .253-.05.53-.152.834-.05.405-.379.91-.986 1.517a2.944 2.944 0 0 1-1.44.683 9.568 9.568 0 0 1-.911.303c-.303.05-.632.101-.986.152l-1.062.151h-4.551l-13.955.076-.228 17.597v.606c0 .253-.025.506-.076.759 0 .202-.025.43-.076.683-.1.252-.202.53-.303.834-.05.253-.126.506-.227.758-.354.708-.683 1.189-.986 1.441-.557.405-1.24.683-2.048.835-1.366.303-2.655.151-3.868-.455a6.9 6.9 0 0 1-.759-.531 3.919 3.919 0 0 1-.53-.91c-.102-.203-.153-.354-.153-.456l-.227-.455a2.385 2.385 0 0 1-.303-.758 26.72 26.72 0 0 0-.152-.834c0-.253-.026-.506-.076-.759 0-.253-.025-.505-.076-.758a4.87 4.87 0 0 1 0-1.214v-1.213l.076-5.916.076-10.922c.05-1.618.076-3.262.076-4.93v-5.158c-.051-1.82-.076-3.438-.076-4.854a187.3 187.3 0 0 1 .227-4.627v-.379c.05-.556.076-1.062.076-1.517 0-.505.05-1.011.152-1.517.101-1.112.354-2.098.758-2.958.354-.86.86-1.466 1.517-1.82a4.64 4.64 0 0 1 2.427-.683c.405 0 .733.026.986.076v-.076h5.461a30.62 30.62 0 0 1 2.427-.076c4.045-.05 8.04-.05 11.984 0h.38a18.25 18.25 0 0 0 1.668.076c.607 0 1.214.026 1.82.076.556 0 1.113.076 1.669.228a10.25 10.25 0 0 1 1.668.455c.86.252 1.517.682 1.973 1.29Zm14.298 59.995a11.403 11.403 0 0 1 1.82-.304c.658-.05 1.24.026 1.745.228a2.81 2.81 0 0 1 1.365 1.062c.354.455.531 1.112.531 1.972 0 .606-.151 1.188-.455 1.744a6.616 6.616 0 0 1-1.137 1.517 8.93 8.93 0 0 1-1.517 1.214c-.557.303-1.087.556-1.593.758-1.467.657-3.16 1.163-5.082 1.517a24.74 24.74 0 0 1-5.84.38 24.62 24.62 0 0 1-7.888-1.594c-2.478-1.01-4.425-2.654-5.84-4.93-1.315-2.224-2.099-4.702-2.352-7.433-.252-2.73-.126-5.309.38-7.736.556-2.933 1.491-5.31 2.806-7.13 1.365-1.87 2.983-3.362 4.854-4.474 2.276-1.315 4.83-1.998 7.66-2.048a18.7 18.7 0 0 1 8.116 1.668 15.841 15.841 0 0 1 4.627 3.11c1.365 1.264 2.402 2.806 3.11 4.627.202.455.353 1.011.455 1.668.151.658.253 1.366.303 2.124.05.708.05 1.416 0 2.124a7.001 7.001 0 0 1-.38 1.896c-.303.91-.682 1.618-1.137 2.124-.455.505-1.036.885-1.744 1.137-.708.253-1.568.43-2.58.531-.96.05-2.123.101-3.488.152-1.214.05-2.351.076-3.413.076h-3.261a76.877 76.877 0 0 0-3.49-.076 447.51 447.51 0 0 0-3.944-.152c-.151 1.011-.025 1.896.38 2.655a6.244 6.244 0 0 0 1.82 1.82 9.86 9.86 0 0 0 2.579 1.062 14.1 14.1 0 0 0 2.806.455c1.72.101 3.363-.025 4.93-.38a120.97 120.97 0 0 0 4.854-1.364ZM80.583 74.18c-.96-1.112-1.972-1.921-3.034-2.427a5.573 5.573 0 0 0-2.579-.455c-.86 0-1.694.127-2.503.38-1.466.353-2.705 1.112-3.716 2.275-.101.101-.278.354-.531.758-.253.354-.506.734-.758 1.138a6.674 6.674 0 0 0-.456 1.138c-.1.354-.05.53.152.53h14.866c-.05-.707-.177-1.289-.38-1.744-.202-.505-.555-1.036-1.061-1.593Z" fill="#fff"/><defs><linearGradient id="a" x1="27.982" y1="21.724" x2="100.908" y2="115.451" gradientUnits="userSpaceOnUse"><stop stop-color="#3632ED"/><stop offset="1" stop-color="#0A0950"/></linearGradient></defs></svg>