<svg width="129" height="129" viewBox="0 0 129 129" fill="none" xmlns="http://www.w3.org/2000/svg">
  <path d="M14.5427 13.7401C14.4263 6.73453 20.8892 1.46215 27.7286 2.98314L82.9477 15.2631C83.818 15.4566 84.7088 15.542 85.6001 15.5173L111.183 14.8082C119.305 14.5831 124.776 23.0451 121.237 30.3584L104.221 65.5281C103.192 67.6542 102.886 70.0582 103.35 72.3742L111.294 112.06C112.863 119.897 105.697 126.677 97.9593 124.678L41.7702 110.159C40.4404 109.815 39.0574 109.727 37.6949 109.9L16.0241 112.651C8.38016 113.622 2.19458 106.528 4.19638 99.0875L14.881 59.3728C15.1436 58.3966 15.2684 57.3885 15.2516 56.3777L14.5427 13.7401Z" fill="url(#paint0_linear_2676_427)"/>
  <path d="M69.5455 28.9001C70.0006 29.5069 70.2787 30.2148 70.3798 31.0238C70.3798 31.3272 70.3545 31.6306 70.304 31.934C70.304 32.1868 70.2787 32.4396 70.2281 32.6924C70.1776 33.2486 69.8489 33.7796 69.2421 34.2852C68.8882 34.538 68.4331 34.7909 67.8769 35.0437C67.5735 35.1448 67.2448 35.2206 66.8909 35.2712C66.5875 35.2712 66.2335 35.2965 65.829 35.3471C65.5256 35.4482 65.197 35.4988 64.843 35.4988C64.4891 35.4988 64.1351 35.4988 63.7812 35.4988H60.3681L44.5162 35.5746V35.8021L44.4403 48.1651C44.8449 48.1651 45.2747 48.1651 45.7297 48.1651C46.2354 48.1651 46.8421 48.1398 47.55 48.0893C49.5726 48.0893 51.3676 48.0893 52.9351 48.0893C54.5532 48.0893 56.3229 48.1145 58.2444 48.1651H58.6995C59.2557 48.1651 59.8119 48.1904 60.3681 48.241C60.9749 48.241 61.5816 48.241 62.1884 48.241C62.7446 48.2915 63.3008 48.3674 63.857 48.4685C64.4132 48.5191 64.9694 48.6455 65.5256 48.8477C66.4358 49.1511 67.0931 49.6315 67.4977 50.2888C68.0539 50.9461 68.332 51.6288 68.332 52.3367C68.332 52.64 68.332 52.9434 68.332 53.2468C68.332 53.4996 68.2814 53.7777 68.1803 54.0811C68.1297 54.4856 67.801 54.9913 67.1943 55.5981C66.7898 55.952 66.3094 56.1795 65.7532 56.2807C65.5004 56.3818 65.197 56.4829 64.843 56.5841C64.5396 56.6346 64.211 56.6852 63.857 56.7358C63.5031 56.7863 63.1491 56.8369 62.7952 56.8874C62.4918 56.8874 62.1378 56.8874 61.7333 56.8874H58.2444L44.2886 56.9633L44.0611 74.5597V75.1664C44.0611 75.4193 44.0358 75.6721 43.9853 75.9249C43.9853 76.1272 43.96 76.3547 43.9094 76.6075C43.8083 76.8603 43.7072 77.1384 43.606 77.4418C43.5555 77.6946 43.4796 77.9475 43.3785 78.2003C43.0245 78.9082 42.6959 79.3886 42.3925 79.6414C41.8363 80.0459 41.1537 80.324 40.3446 80.4757C38.9794 80.7791 37.69 80.6274 36.4765 80.0206C36.2236 79.8689 35.9708 79.6919 35.718 79.4897C35.5157 79.2369 35.3388 78.9335 35.1871 78.5795C35.0859 78.3773 35.0354 78.2256 35.0354 78.1244L34.8078 77.6694C34.6562 77.4165 34.555 77.1637 34.5045 76.9109C34.4539 76.6075 34.4033 76.3294 34.3528 76.0766C34.3528 75.8238 34.3275 75.5709 34.2769 75.3181C34.2769 75.0653 34.2516 74.8125 34.2011 74.5597C34.1505 74.1551 34.1505 73.7506 34.2011 73.3461V72.1326L34.2769 66.2166L34.3528 55.2947C34.4033 53.6766 34.4286 52.0333 34.4286 50.3647C34.4286 48.696 34.4286 46.9768 34.4286 45.2071C34.378 43.3868 34.3528 41.7687 34.3528 40.3529C34.4033 38.9371 34.4792 37.3949 34.5803 35.7263V35.3471C34.6309 34.7909 34.6562 34.2852 34.6562 33.8301C34.6562 33.3245 34.7067 32.8188 34.8078 32.3132C34.909 31.2008 35.1618 30.2148 35.5663 29.3552C35.9203 28.4956 36.4259 27.8888 37.0832 27.5349C37.8417 27.0798 38.6507 26.8523 39.5103 26.8523C39.9148 26.8523 40.2435 26.8775 40.4963 26.9281V26.8523C41.4065 26.8523 42.1397 26.8523 42.6959 26.8523C43.2521 26.8523 43.783 26.8523 44.2886 26.8523C44.7943 26.8523 45.3505 26.8523 45.9573 26.8523C46.564 26.8017 47.3731 26.7764 48.3844 26.7764C52.4295 26.7259 56.4241 26.7259 60.3681 26.7764H60.7473C61.3035 26.827 61.8597 26.8523 62.4159 26.8523C63.0227 26.8523 63.6295 26.8775 64.2363 26.9281C64.7925 26.9281 65.3487 27.004 65.9049 27.1556C66.4611 27.2568 67.0173 27.4085 67.5735 27.6107C68.4331 27.8635 69.0904 28.2933 69.5455 28.9001Z" fill="white"/>
  <path d="M83.8443 88.8946C84.4511 88.7429 85.0579 88.6418 85.6647 88.5912C86.322 88.5407 86.9035 88.6165 87.4091 88.8188C87.9653 89.021 88.4204 89.375 88.7744 89.8806C89.1283 90.3357 89.3053 90.993 89.3053 91.8526C89.3053 92.4594 89.1536 93.0409 88.8502 93.5971C88.5468 94.1533 88.1676 94.659 87.7125 95.114C87.2574 95.5691 86.7518 95.9736 86.1956 96.3276C85.6394 96.631 85.1085 96.8838 84.6028 97.086C83.1364 97.7434 81.4425 98.249 79.5211 98.603C77.6502 98.9569 75.7035 99.0833 73.6809 98.9822C70.9505 98.8811 68.3211 98.3502 65.7929 97.3894C63.3152 96.3781 61.3685 94.7348 59.9527 92.4594C58.6381 90.2346 57.8543 87.7569 57.6015 85.0265C57.3487 82.296 57.4751 79.7172 57.9807 77.2901C58.5369 74.3574 59.4724 71.9809 60.787 70.1606C62.1523 68.2897 63.7703 66.798 65.6412 65.6856C67.9166 64.371 70.4701 63.6883 73.3017 63.6378C76.1333 63.5872 78.8385 64.1434 81.4173 65.3064C83.1364 66.0649 84.6787 67.1014 86.0439 68.4161C87.4091 69.6802 88.4457 71.2224 89.1536 73.0427C89.3559 73.4978 89.5075 74.054 89.6087 74.7114C89.7604 75.3687 89.8615 76.0766 89.9121 76.8351C89.9626 77.543 89.9626 78.2509 89.9121 78.9587C89.8615 79.6666 89.7351 80.2987 89.5328 80.8549C89.2294 81.7651 88.8502 82.473 88.3951 82.9786C87.9401 83.4843 87.3586 83.8635 86.6507 84.1163C85.9428 84.3691 85.0832 84.5461 84.0719 84.6472C83.1112 84.6978 81.9482 84.7484 80.583 84.7989C79.3694 84.8495 78.2317 84.8748 77.1699 84.8748C76.108 84.8748 75.0209 84.8748 73.9085 84.8748C72.7961 84.8242 71.6331 84.7989 70.4195 84.7989C69.2566 84.7484 67.9419 84.6978 66.4755 84.6472C66.3238 85.6585 66.4502 86.5434 66.8547 87.3019C67.3098 88.0098 67.9166 88.6165 68.6751 89.1222C69.4335 89.5772 70.2931 89.9312 71.2538 90.184C72.2146 90.4368 73.15 90.5885 74.0602 90.6391C75.7793 90.7402 77.4227 90.6138 78.9902 90.2599C80.5577 89.8554 82.1757 89.4003 83.8443 88.8946ZM80.583 74.1804C79.6222 73.068 78.6109 72.259 77.5491 71.7533C76.7401 71.3994 75.8805 71.2477 74.9703 71.2983C74.1107 71.2983 73.2764 71.4247 72.4674 71.6775C71.001 72.0314 69.7622 72.7899 68.7509 73.9529C68.6498 74.054 68.4728 74.3068 68.22 74.7114C67.9672 75.0653 67.7143 75.4445 67.4615 75.849C67.2593 76.2536 67.1076 76.6328 67.0064 76.9867C66.9053 77.3407 66.9559 77.5177 67.1581 77.5177H82.024C81.9735 76.8098 81.8471 76.2283 81.6448 75.7732C81.4425 75.2676 81.0886 74.7366 80.583 74.1804Z" fill="white"/>
  <defs>
    <linearGradient id="paint0_linear_2676_427" x1="27.9817" y1="21.7245" x2="100.908" y2="115.451" gradientUnits="userSpaceOnUse">
      <stop stop-color="#3632ED"/>
      <stop offset="1" stop-color="#0A0950"/>
    </linearGradient>
  </defs>
</svg>